solid OpenSCAD_Model
  facet normal 1 -0 0
    outer loop
      vertex 30 -75 9
      vertex 30 75 -9
      vertex 30 75 9
    endloop
  endfacet
  facet normal 1 0 0
    outer loop
      vertex 30 75 -9
      vertex 30 -75 9
      vertex 30 -75 -9
    endloop
  endfacet
  facet normal 0 0 1
    outer loop
      vertex 30 75 9
      vertex 9 52 9
      vertex 30 -75 9
    endloop
  endfacet
  facet normal 0 0 1
    outer loop
      vertex 30 75 9
      vertex -9 52 9
      vertex 9 52 9
    endloop
  endfacet
  facet normal 0 0 1
    outer loop
      vertex -9 52 9
      vertex -30 75 9
      vertex -9 -52 9
    endloop
  endfacet
  facet normal -0 0 1
    outer loop
      vertex -30 75 9
      vertex -9 52 9
      vertex 30 75 9
    endloop
  endfacet
  facet normal -0 0 1
    outer loop
      vertex 9 -52 9
      vertex 30 -75 9
      vertex 9 52 9
    endloop
  endfacet
  facet normal -0 0 1
    outer loop
      vertex -9 -52 9
      vertex 30 -75 9
      vertex 9 -52 9
    endloop
  endfacet
  facet normal 0 0 1
    outer loop
      vertex -9 -52 9
      vertex -30 -75 9
      vertex 30 -75 9
    endloop
  endfacet
  facet normal 0 0 1
    outer loop
      vertex -30 -75 9
      vertex -9 -52 9
      vertex -30 75 9
    endloop
  endfacet
  facet normal 0 0 -1
    outer loop
      vertex 30 -75 -9
      vertex 9 -52 -9
      vertex 30 75 -9
    endloop
  endfacet
  facet normal 0 0 -1
    outer loop
      vertex 30 -75 -9
      vertex -9 -52 -9
      vertex 9 -52 -9
    endloop
  endfacet
  facet normal -0 0 -1
    outer loop
      vertex -9 -52 -9
      vertex -30 -75 -9
      vertex -9 52 -9
    endloop
  endfacet
  facet normal 0 0 -1
    outer loop
      vertex -30 -75 -9
      vertex -9 -52 -9
      vertex 30 -75 -9
    endloop
  endfacet
  facet normal 0 0 -1
    outer loop
      vertex 9 52 -9
      vertex 30 75 -9
      vertex 9 -52 -9
    endloop
  endfacet
  facet normal 0 0 -1
    outer loop
      vertex -9 52 -9
      vertex 30 75 -9
      vertex 9 52 -9
    endloop
  endfacet
  facet normal 0 0 -1
    outer loop
      vertex -9 52 -9
      vertex -30 75 -9
      vertex 30 75 -9
    endloop
  endfacet
  facet normal 0 0 -1
    outer loop
      vertex -30 75 -9
      vertex -9 52 -9
      vertex -30 -75 -9
    endloop
  endfacet
  facet normal -1 0 0
    outer loop
      vertex -30 -75 -9
      vertex -30 75 9
      vertex -30 75 -9
    endloop
  endfacet
  facet normal -1 -0 0
    outer loop
      vertex -30 75 9
      vertex -30 -75 -9
      vertex -30 -75 9
    endloop
  endfacet
  facet normal 0 1 -0
    outer loop
      vertex 30 75 -9
      vertex -30 75 9
      vertex 30 75 9
    endloop
  endfacet
  facet normal 0 1 0
    outer loop
      vertex -30 75 9
      vertex 30 75 -9
      vertex -30 75 -9
    endloop
  endfacet
  facet normal 0 -1 0
    outer loop
      vertex -30 -75 -9
      vertex 30 -75 9
      vertex -30 -75 9
    endloop
  endfacet
  facet normal 0 -1 -0
    outer loop
      vertex 30 -75 9
      vertex -30 -75 -9
      vertex 30 -75 -9
    endloop
  endfacet
  facet normal -1 0 0
    outer loop
      vertex 9 -52 -9
      vertex 9 52 9
      vertex 9 52 -9
    endloop
  endfacet
  facet normal -1 -0 0
    outer loop
      vertex 9 52 9
      vertex 9 -52 -9
      vertex 9 -52 9
    endloop
  endfacet
  facet normal 1 -0 0
    outer loop
      vertex -9 -52 9
      vertex -9 52 -9
      vertex -9 52 9
    endloop
  endfacet
  facet normal 1 0 0
    outer loop
      vertex -9 52 -9
      vertex -9 -52 9
      vertex -9 -52 -9
    endloop
  endfacet
  facet normal 0 -1 0
    outer loop
      vertex -9 52 -9
      vertex 9 52 9
      vertex -9 52 9
    endloop
  endfacet
  facet normal 0 -1 -0
    outer loop
      vertex 9 52 9
      vertex -9 52 -9
      vertex 9 52 -9
    endloop
  endfacet
  facet normal 0 1 -0
    outer loop
      vertex 9 -52 -9
      vertex -9 -52 9
      vertex 9 -52 9
    endloop
  endfacet
  facet normal 0 1 0
    outer loop
      vertex -9 -52 9
      vertex 9 -52 -9
      vertex -9 -52 -9
    endloop
  endfacet
endsolid OpenSCAD_Model
